<svg xmlns="http://www.w3.org/2000/svg" viewBox="0 0 100 100">
  <!-- Background -->
  <rect width="100" height="100" rx="20" fill="#2563EB"/>
  
  <!-- Letter P with Flow Arrow Design -->
  <g fill="#FFFFFF">
    <!-- P Letter -->
    <path d="M 25 25 L 25 75 L 30 75 L 30 52 L 50 52 C 60 52 65 47 65 38 C 65 29 60 25 50 25 Z M 30 30 L 48 30 C 55 30 60 32 60 38 C 60 44 55 47 48 47 L 30 47 Z"/>
    
    <!-- Flow Arrow -->
    <path d="M 55 55 L 75 55 L 75 50 L 85 60 L 75 70 L 75 65 L 55 65 Z"/>
  </g>
  
  <!-- Accent Dot -->
  <circle cx="70" cy="35" r="4" fill="#60A5FA"/>
</svg>
